<?xml version="1.0" standalone="no"?>
<!DOCTYPE svg PUBLIC "-//W3C//DTD SVG 20010904//EN"
 "http://www.w3.org/TR/2001/REC-SVG-20010904/DTD/svg10.dtd">
<svg version="1.0" xmlns="http://www.w3.org/2000/svg"
 width="672.000000pt" height="359.000000pt" viewBox="0 0 672.000000 359.000000"
 preserveAspectRatio="xMidYMid meet">

<g transform="translate(0.000000,359.000000) scale(0.100000,-0.100000)"
fill="#000000" stroke="none">
<path d="M910 3504 c-247 -44 -429 -132 -578 -281 -125 -126 -208 -273 -259
-461 -24 -86 -27 -115 -26 -257 0 -179 17 -278 72 -421 90 -233 277 -428 501
-521 118 -49 166 -62 295 -79 309 -41 626 33 908 213 l67 43 0 450 0 450 -420
0 -420 0 0 -180 0 -180 103 -2 c56 -2 155 -1 220 1 l117 3 0 -170 0 -170 -25
-16 c-14 -9 -25 -14 -25 -11 0 3 -12 -1 -27 -9 -100 -50 -319 -70 -456 -41
-212 45 -378 199 -441 409 -30 99 -40 210 -27 303 36 256 164 429 379 510 92
35 306 44 415 18 66 -15 235 -80 247 -94 3 -4 17 -14 31 -23 l27 -17 52 85
c28 46 76 118 106 160 30 42 52 80 49 84 -11 18 -175 101 -257 131 -148 55
-246 71 -433 74 -93 2 -181 1 -195 -1z"/>
<path d="M5410 3496 c-350 -56 -621 -262 -754 -573 -113 -264 -112 -610 1
-874 91 -213 260 -393 448 -479 258 -117 608 -132 873 -37 l34 12 -4 197 c-1
109 -4 198 -4 198 -1 0 -28 -12 -60 -26 -294 -130 -658 -55 -817 168 -109 153
-152 367 -111 551 64 286 278 468 568 484 171 9 320 -28 475 -118 36 -21 69
-35 73 -31 4 4 52 76 107 160 l101 152 -53 34 c-115 73 -275 138 -412 167
-119 26 -351 33 -465 15z"/>
<path d="M2240 2485 l0 -975 199 0 c110 0 207 -3 215 -6 15 -6 16 53 14 665
-2 369 0 671 3 671 3 0 27 -37 54 -82 26 -46 135 -229 240 -408 106 -179 217
-366 246 -417 41 -71 59 -92 75 -93 18 0 73 86 319 500 164 275 300 500 304
500 3 0 5 -299 3 -665 l-2 -665 210 0 210 0 0 975 0 975 -257 -2 -257 -3 -84
-145 c-109 -189 -230 -396 -254 -438 -70 -124 -180 -302 -186 -302 -4 0 -122
200 -261 445 l-255 445 -268 0 -268 0 0 -975z"/>
<path d="M5640 2471 l0 -181 225 0 225 0 1 -102 c1 -258 7 -346 24 -399 22
-66 60 -123 116 -173 39 -36 40 -39 23 -49 -41 -23 -111 -98 -134 -144 -24
-47 -25 -52 -25 -318 l0 -270 -227 -3 -228 -2 0 -189 0 -188 159 -6 c189 -8
479 0 538 15 58 14 115 67 144 130 24 52 24 56 25 395 l0 341 28 42 c28 43 75
70 121 70 l25 0 0 145 0 145 -27 5 c-44 9 -95 38 -115 66 -33 43 -38 94 -38
383 0 302 -4 332 -52 391 -59 71 -53 70 -450 73 l-358 4 0 -181z"/>
<path d="M3630 1046 c-189 -55 -321 -198 -356 -387 -14 -73 -14 -88 1 -162 39
-195 144 -320 320 -382 104 -36 240 -35 351 3 68 24 174 83 174 97 0 3 -21 32
-46 64 l-46 60 -22 -21 c-36 -34 -113 -67 -184 -80 -60 -10 -78 -9 -135 6
-156 42 -247 163 -247 327 0 138 60 240 174 299 62 32 77 35 150 35 91 0 157
-19 230 -65 25 -16 46 -26 46 -21 0 5 18 31 40 57 22 27 40 53 40 59 0 17 -94
73 -162 96 -79 27 -259 35 -328 15z"/>
<path d="M1260 975 l0 -75 155 0 155 0 0 -405 0 -405 85 0 85 0 0 405 0 405
155 0 155 0 0 75 0 75 -395 0 -395 0 0 -75z"/>
<path d="M2317 1043 c-4 -3 -7 -219 -7 -480 l0 -473 335 0 335 0 0 80 0 81
-250 -3 -250 -3 0 128 0 127 210 0 210 0 0 75 0 75 -210 0 -210 0 0 125 0 125
250 0 250 0 0 75 0 75 -328 0 c-181 0 -332 -3 -335 -7z"/>
<path d="M4430 570 l0 -480 80 0 80 0 0 205 0 205 250 0 250 0 0 -205 0 -205
83 0 82 0 -3 480 -2 480 -80 0 -80 0 0 -200 0 -200 -250 0 -250 0 0 200 0 200
-80 0 -80 0 0 -480z"/>
</g>
</svg>
